<svg xmlns="http://www.w3.org/2000/svg" viewBox="0 0 1600 900" preserveAspectRatio="xMidYMid slice" role="img" aria-label="Sourcey dashboard preview">
  <defs>
    <linearGradient id="bg" x1="0" y1="0" x2="0" y2="1">
      <stop offset="0" stop-color="#F8FAFC"/>
      <stop offset="1" stop-color="#F1F5F9"/>
    </linearGradient>
    <linearGradient id="logo" x1="0" y1="0" x2="1" y2="1">
      <stop offset="0" stop-color="#3B82F6"/>
      <stop offset="1" stop-color="#1D4ED8"/>
    </linearGradient>
    <linearGradient id="btn" x1="0" y1="0" x2="0" y2="1">
      <stop offset="0" stop-color="#3B82F6"/>
      <stop offset="1" stop-color="#1D4ED8"/>
    </linearGradient>
  </defs>

  <!-- Background -->
  <rect width="1600" height="900" fill="url(#bg)"/>

  <!-- Sidebar -->
  <rect x="0" y="0" width="260" height="900" fill="#FFFFFF"/>
  <rect x="0" y="0" width="260" height="900" fill="none" stroke="#E2E8F0" stroke-width="1"/>

  <!-- Logo block in sidebar (uses real mark) -->
  <image x="20" y="22" width="44" height="44" href="/logo/sourcey-mark.png" preserveAspectRatio="xMidYMid meet"/>
  <text x="72" y="50" font-family="system-ui,-apple-system,Segoe UI,sans-serif" font-size="18" font-weight="800" fill="#0F172A">Sourcey</text>

  <!-- Active nav item -->
  <rect x="16" y="96" width="228" height="40" rx="10" fill="#EFF6FF"/>
  <circle cx="34" cy="116" r="6" fill="#2563EB"/>
  <text x="52" y="122" font-family="system-ui,-apple-system,Segoe UI,sans-serif" font-size="13.5" font-weight="600" fill="#1D4ED8">Tableau de bord</text>

  <!-- Other nav items -->
  <g font-family="system-ui,-apple-system,Segoe UI,sans-serif" font-size="13.5" fill="#64748B">
    <text x="52" y="166">Messagerie</text>
    <circle cx="34" cy="160" r="5" fill="#94A3B8"/>
    <text x="52" y="206">Mes commandes</text>
    <circle cx="34" cy="200" r="5" fill="#94A3B8"/>
    <text x="52" y="246">Sourcey Pulse</text>
    <circle cx="34" cy="240" r="5" fill="#94A3B8"/>
  </g>

  <text x="24" y="306" font-family="system-ui" font-size="11" font-weight="700" letter-spacing="1" fill="#94A3B8">SOURCING</text>

  <g font-family="system-ui,-apple-system,Segoe UI,sans-serif" font-size="13.5" fill="#64748B">
    <text x="52" y="346">Catalogue</text>
    <circle cx="34" cy="340" r="5" fill="#94A3B8"/>
    <text x="52" y="386">Visual Search IA</text>
    <circle cx="34" cy="380" r="5" fill="#94A3B8"/>
    <text x="52" y="426">Brand Coach IA</text>
    <circle cx="34" cy="420" r="5" fill="#94A3B8"/>
    <text x="52" y="466">Annuaire agents</text>
    <circle cx="34" cy="460" r="5" fill="#94A3B8"/>
  </g>

  <!-- Promo card in sidebar -->
  <rect x="16" y="540" width="228" height="120" rx="14" fill="#EFF6FF"/>
  <text x="32" y="568" font-family="system-ui" font-size="10.5" font-weight="700" letter-spacing="0.5" fill="#2563EB">✨ SOURCEY IA</text>
  <text x="32" y="594" font-family="system-ui" font-size="12.5" font-weight="600" fill="#0F172A">Pas envie de chercher ?</text>
  <text x="32" y="612" font-family="system-ui" font-size="12.5" font-weight="600" fill="#0F172A">Décris ton besoin.</text>
  <text x="32" y="642" font-family="system-ui" font-size="12" font-weight="600" fill="#2563EB">Lancer Match IA →</text>

  <!-- User pill bottom -->
  <rect x="16" y="836" width="228" height="48" rx="12" fill="#0F172A"/>
  <circle cx="40" cy="860" r="14" fill="#2563EB"/>
  <text x="40" y="864" font-family="system-ui" font-size="11" font-weight="800" fill="#FFFFFF" text-anchor="middle">M</text>
  <text x="64" y="858" font-family="system-ui" font-size="12.5" font-weight="600" fill="#FFFFFF">Marie Test</text>
  <text x="64" y="874" font-family="system-ui" font-size="10.5" fill="#94A3B8">Plan PRO</text>

  <!-- ====== MAIN CONTENT ====== -->

  <!-- Header greeting -->
  <text x="300" y="64" font-family="system-ui" font-size="11.5" font-weight="700" letter-spacing="1" fill="#94A3B8">BONSOIR 👋</text>
  <text x="300" y="118" font-family="system-ui" font-size="44" font-weight="800" fill="#0F172A">Marie Test</text>
  <text x="300" y="148" font-family="system-ui" font-size="14" fill="#64748B">Voici un aperçu de ton activité sur Sourcey.</text>

  <!-- CTAs top right -->
  <rect x="1180" y="80" width="140" height="44" rx="22" fill="url(#btn)"/>
  <text x="1250" y="107" font-family="system-ui" font-size="13.5" font-weight="600" fill="#FFFFFF" text-anchor="middle">✨ Match IA</text>

  <rect x="1330" y="80" width="140" height="44" rx="22" fill="#FFFFFF" stroke="#E2E8F0" stroke-width="1"/>
  <text x="1400" y="107" font-family="system-ui" font-size="13.5" font-weight="600" fill="#0F172A" text-anchor="middle">📦 Catalogue</text>

  <!-- 4 Stat cards -->
  <g>
    <rect x="300" y="190" width="270" height="120" rx="18" fill="#FFFFFF" stroke="#E2E8F0"/>
    <circle cx="332" cy="226" r="16" fill="#EFF6FF"/>
    <text x="320" y="278" font-family="system-ui" font-size="34" font-weight="800" fill="#0F172A">0</text>
    <text x="320" y="298" font-family="system-ui" font-size="12" fill="#64748B">Messages non lus</text>

    <rect x="590" y="190" width="270" height="120" rx="18" fill="#FFFFFF" stroke="#E2E8F0"/>
    <circle cx="622" cy="226" r="16" fill="#FEF3C7"/>
    <text x="610" y="278" font-family="system-ui" font-size="34" font-weight="800" fill="#0F172A">2</text>
    <text x="610" y="298" font-family="system-ui" font-size="12" fill="#64748B">Commandes actives</text>

    <rect x="880" y="190" width="270" height="120" rx="18" fill="#FFFFFF" stroke="#E2E8F0"/>
    <circle cx="912" cy="226" r="16" fill="#DCFCE7"/>
    <text x="900" y="278" font-family="system-ui" font-size="34" font-weight="800" fill="#0F172A">3</text>
    <text x="900" y="298" font-family="system-ui" font-size="12" fill="#64748B">Agents en relation</text>

    <rect x="1170" y="190" width="300" height="120" rx="18" fill="#FFFFFF" stroke="#E2E8F0"/>
    <circle cx="1202" cy="226" r="16" fill="#F3E8FF"/>
    <text x="1190" y="278" font-family="system-ui" font-size="34" font-weight="800" fill="#0F172A">0€</text>
    <text x="1190" y="298" font-family="system-ui" font-size="12" fill="#64748B">Volume services HT</text>
  </g>

  <!-- Conversations panel -->
  <rect x="300" y="340" width="560" height="320" rx="18" fill="#FFFFFF" stroke="#E2E8F0"/>
  <text x="324" y="376" font-family="system-ui" font-size="14.5" font-weight="700" fill="#0F172A">Conversations récentes</text>
  <text x="836" y="376" font-family="system-ui" font-size="12" font-weight="600" fill="#2563EB" text-anchor="end">Voir tout →</text>

  <g font-family="system-ui">
    <circle cx="348" cy="426" r="18" fill="#FECACA"/>
    <text x="380" y="424" font-size="13" font-weight="700" fill="#0F172A">Li Wei</text>
    <text x="380" y="442" font-size="12" fill="#64748B">👋 Hello, présente-moi un peu ton parcours.</text>

    <circle cx="348" cy="484" r="18" fill="#FBCFE8"/>
    <text x="380" y="482" font-size="13" font-weight="700" fill="#0F172A">Chen Mei</text>
    <text x="380" y="500" font-size="12" fill="#64748B">Devis : Tote bag toile lourde 12oz</text>

    <circle cx="348" cy="542" r="18" fill="#FED7AA"/>
    <text x="380" y="540" font-size="13" font-weight="700" fill="#0F172A">Wang Jun</text>
    <text x="380" y="558" font-size="12" fill="#64748B">Yes, envoie-moi l'échantillon STP.</text>

    <circle cx="348" cy="600" r="18" fill="#2563EB"/>
    <text x="348" y="606" font-size="11" font-weight="800" fill="#FFFFFF" text-anchor="middle">S</text>
    <text x="380" y="598" font-size="13" font-weight="700" fill="#0F172A">Support Sourcey</text>
    <text x="380" y="616" font-size="12" fill="#64748B">Bien sûr, je regarde ça et te reviens.</text>
  </g>

  <!-- Orders panel -->
  <rect x="880" y="340" width="590" height="320" rx="18" fill="#FFFFFF" stroke="#E2E8F0"/>
  <text x="904" y="376" font-family="system-ui" font-size="14.5" font-weight="700" fill="#0F172A">Mes commandes</text>
  <text x="1446" y="376" font-family="system-ui" font-size="12" font-weight="600" fill="#2563EB" text-anchor="end">Voir tout →</text>

  <g font-family="system-ui">
    <text x="904" y="436" font-size="13" font-weight="700" fill="#0F172A">📋 Tote bag toile lourde 12oz</text>
    <text x="904" y="456" font-size="12" fill="#64748B">Devis 100u · Chen Mei · hier 19:41</text>
    <rect x="1340" y="416" width="80" height="26" rx="13" fill="#FEF3C7"/>
    <text x="1380" y="433" font-size="11" font-weight="700" fill="#92400E" text-anchor="middle">En cours</text>

    <text x="904" y="510" font-size="13" font-weight="700" fill="#0F172A">👕 T-shirt premium coton bio 220g</text>
    <text x="904" y="530" font-size="12" fill="#64748B">Sample · Chen Mei · hier 19:39</text>
    <rect x="1340" y="490" width="80" height="26" rx="13" fill="#FEF3C7"/>
    <text x="1380" y="507" font-size="11" font-weight="700" fill="#92400E" text-anchor="middle">En cours</text>
  </g>

  <!-- Actions rapides -->
  <text x="300" y="708" font-family="system-ui" font-size="11.5" font-weight="700" letter-spacing="1" fill="#94A3B8">ACTIONS RAPIDES</text>

  <g>
    <rect x="300" y="724" width="285" height="80" rx="16" fill="#EFF6FF"/>
    <text x="318" y="754" font-family="system-ui" font-size="13" font-weight="700" fill="#0F172A">✨ Trouver un agent</text>
    <text x="318" y="774" font-family="system-ui" font-size="11.5" fill="#64748B">Décris ton produit, l'IA matche en 5s</text>

    <rect x="595" y="724" width="285" height="80" rx="16" fill="#FEF3C7"/>
    <text x="613" y="754" font-family="system-ui" font-size="13" font-weight="700" fill="#0F172A">📦 Parcourir le catalogue</text>
    <text x="613" y="774" font-family="system-ui" font-size="11.5" fill="#64748B">15 produits déjà négociés</text>

    <rect x="890" y="724" width="285" height="80" rx="16" fill="#F3E8FF"/>
    <text x="908" y="754" font-family="system-ui" font-size="13" font-weight="700" fill="#0F172A">+ Booker un service</text>
    <text x="908" y="774" font-family="system-ui" font-size="11.5" fill="#64748B">Photoshoot, packaging, logo</text>

    <rect x="1185" y="724" width="285" height="80" rx="16" fill="#DCFCE7"/>
    <text x="1203" y="754" font-family="system-ui" font-size="13" font-weight="700" fill="#0F172A">🎧 Contacter le support</text>
    <text x="1203" y="774" font-family="system-ui" font-size="11.5" fill="#64748B">Réponse sous 2h</text>
  </g>
</svg>
